<?xml version="1.0" standalone="no"?>
<!DOCTYPE svg PUBLIC "-//W3C//DTD SVG 20010904//EN"
 "http://www.w3.org/TR/2001/REC-SVG-20010904/DTD/svg10.dtd">
<svg version="1.0" xmlns="http://www.w3.org/2000/svg"
 width="1280.000000pt" height="1280.000000pt" viewBox="0 0 1280.000000 1280.000000"
 preserveAspectRatio="xMidYMid meet">
<metadata>
Created by potrace 1.14, written by Peter Selinger 2001-2017
</metadata>
<g transform="translate(0.000000,1280.000000) scale(0.100000,-0.100000)"
fill="#000000" stroke="none">
<path d="M9288 11654 c-3 -3 -19 -7 -34 -9 -16 -2 -29 -4 -29 -5 0 -2 -14 -5
-52 -14 -12 -2 -31 -10 -42 -16 -12 -6 -21 -9 -21 -6 0 8 -142 -64 -189 -96
-132 -90 -240 -210 -313 -353 -40 -78 -84 -208 -94 -281 -8 -62 -8 -216 1
-274 4 -25 8 -52 9 -60 1 -9 5 -21 10 -28 4 -6 5 -12 2 -12 -9 0 46 -141 77
-200 186 -345 551 -533 947 -487 96 11 253 65 332 114 21 13 41 23 45 23 5 0
20 11 35 25 15 14 30 25 34 25 4 0 41 35 83 78 93 93 149 177 209 312 15 33
49 163 58 220 9 60 9 194 -1 250 -4 25 -9 54 -11 65 -6 39 -12 62 -28 98 -8
20 -12 37 -9 37 3 0 0 7 -7 15 -7 8 -10 15 -7 15 8 0 -81 160 -99 177 -8 8
-14 18 -14 22 0 17 -158 168 -215 206 -82 55 -98 64 -115 71 -8 3 -31 13 -50
22 -19 9 -37 17 -40 17 -3 0 -23 7 -45 15 -22 7 -47 15 -55 16 -8 1 -26 6 -40
10 -30 8 -324 16 -332 8z"/>
<path d="M6777 10224 c-1 -1 -67 -5 -147 -8 -80 -4 -163 -9 -185 -11 -22 -2
-76 -6 -120 -10 -44 -3 -100 -8 -125 -10 -25 -2 -79 -6 -120 -9 -41 -4 -97 -8
-125 -11 -104 -9 -202 -17 -250 -20 -27 -2 -79 -6 -115 -9 -62 -6 -105 -10
-250 -22 -36 -3 -85 -7 -110 -9 -25 -2 -81 -7 -125 -10 -44 -4 -100 -8 -125
-10 -25 -2 -76 -7 -115 -9 -38 -3 -97 -8 -130 -11 -106 -10 -224 -20 -345 -30
-30 -2 -82 -7 -115 -10 -33 -3 -85 -8 -115 -10 -30 -3 -75 -7 -100 -9 -25 -3
-74 -7 -110 -10 -152 -13 -197 -17 -240 -22 -52 -5 -136 -13 -200 -19 -57 -5
-173 -15 -225 -21 -22 -2 -71 -6 -110 -9 -38 -3 -86 -7 -105 -10 -19 -2 -64
-7 -100 -11 -36 -3 -76 -8 -90 -9 -14 -2 -50 -6 -80 -9 -74 -8 -170 -22 -210
-30 -14 -3 -34 -8 -45 -10 -11 -2 -58 -16 -103 -32 -65 -21 -80 -29 -67 -37 9
-5 26 -10 38 -12 12 -2 40 -6 62 -10 57 -10 83 -14 140 -20 28 -3 66 -8 85
-11 19 -3 55 -7 80 -9 68 -6 150 -15 195 -21 22 -3 58 -7 80 -9 127 -12 154
-15 190 -20 22 -3 67 -7 100 -10 33 -3 78 -8 100 -11 22 -3 60 -7 85 -10 25
-2 63 -6 85 -9 22 -2 65 -7 95 -10 30 -3 71 -7 90 -9 19 -2 62 -7 95 -10 33
-4 76 -9 95 -11 19 -2 69 -7 110 -10 41 -4 86 -9 100 -11 26 -5 84 -12 160
-19 25 -2 65 -6 90 -9 25 -3 70 -8 100 -11 30 -3 69 -8 85 -10 17 -2 57 -6 90
-9 33 -3 80 -9 105 -12 25 -3 63 -7 85 -9 39 -3 101 -10 200 -20 28 -3 73 -8
100 -11 105 -9 161 -15 205 -20 25 -3 63 -6 85 -8 68 -6 188 -17 225 -22 131
-15 409 -37 645 -50 226 -12 740 -6 865 10 14 2 55 7 92 10 87 9 107 13 157
31 23 8 42 14 44 13 3 -2 94 44 125 63 53 32 152 141 158 174 1 5 8 28 16 50
13 36 14 95 5 150 -24 137 -225 302 -402 329 -22 4 -47 9 -55 11 -54 17 -195
26 -413 28 -104 1 -189 1 -190 1z"/>
<path d="M10184 9409 c-90 -24 -163 -66 -224 -128 -46 -46 -86 -107 -96 -143
-1 -5 -3 -9 -4 -10 -8 -8 -6 -136 2 -165 5 -20 11 -44 13 -54 2 -10 20 -58 40
-106 20 -49 37 -92 38 -98 5 -19 128 -240 177 -318 28 -43 50 -82 50 -87 0 -5
4 -10 8 -12 10 -4 102 -156 102 -168 0 -6 4 -10 9 -10 5 0 11 -8 15 -17 6 -20
7 -21 119 -200 43 -67 77 -125 77 -128 0 -3 11 -22 24 -43 14 -20 36 -66 49
-102 27 -74 24 -97 -22 -140 -42 -41 -159 -130 -170 -130 -5 0 -11 -4 -13 -8
-4 -10 -154 -112 -164 -112 -4 0 -15 -6 -23 -14 -16 -14 -99 -62 -161 -93 -19
-10 -37 -21 -40 -24 -10 -14 -464 -233 -475 -230 -3 1 -18 -5 -33 -13 -56 -30
-182 -85 -212 -91 -3 -1 -23 -9 -45 -19 -22 -10 -44 -19 -50 -20 -5 -1 -28
-10 -50 -20 -22 -10 -44 -19 -50 -20 -5 -2 -21 -8 -35 -13 -14 -6 -60 -25
-103 -42 -84 -33 -162 -73 -187 -93 -25 -20 -50 -61 -50 -80 0 -15 12 -16 143
-12 161 6 201 8 307 19 41 4 93 8 115 10 22 2 54 6 70 9 17 3 57 8 90 11 78 8
112 12 156 20 20 3 51 7 70 9 39 5 126 17 151 21 9 2 38 7 65 11 26 3 57 9 68
11 11 3 27 6 35 7 8 1 24 5 35 9 11 3 32 8 47 11 15 2 67 14 115 27 48 12 92
22 98 23 5 1 16 5 23 10 7 4 16 5 19 2 3 -3 11 -1 18 4 6 5 20 11 31 13 10 2
26 7 34 10 8 3 38 13 65 22 28 8 57 18 65 22 8 3 20 7 25 9 40 10 179 77 323
155 54 29 219 153 250 188 66 73 149 230 166 311 3 14 7 36 11 50 21 97 21
268 0 370 -14 66 -16 77 -20 102 -2 15 -6 32 -9 37 -4 5 -9 29 -12 53 -4 24
-10 51 -15 60 -5 9 -8 21 -8 25 1 4 0 15 -3 23 -11 29 -60 185 -63 200 -2 8
-4 16 -5 18 -2 1 -3 5 -4 10 -1 4 -12 34 -25 67 -13 33 -24 65 -25 70 -2 6 -8
21 -13 35 -6 14 -32 77 -58 140 -26 63 -52 126 -58 140 -6 14 -11 27 -12 30
-9 26 -47 95 -78 141 -20 31 -37 61 -37 68 0 6 -4 11 -8 11 -5 0 -23 19 -40
43 -17 23 -53 65 -80 94 -53 54 -194 163 -211 163 -6 0 -11 5 -11 12 0 6 -3 8
-7 5 -3 -4 -11 -3 -17 1 -14 11 -113 48 -151 57 -49 12 -79 11 -141 -6z"/>
<path d="M2075 9321 c-50 -23 -89 -64 -111 -116 -17 -38 -18 -136 -19 -1585
-1 -850 -5 -1561 -9 -1580 -4 -19 -14 -45 -22 -57 -8 -13 -12 -23 -9 -23 4 0
-2 -12 -12 -27 -11 -16 -30 -49 -44 -75 -13 -27 -27 -48 -31 -48 -5 0 -8 -4
-8 -10 0 -5 -55 -104 -122 -220 -68 -116 -130 -223 -138 -238 -41 -76 -94
-168 -100 -172 -3 -3 -11 -16 -18 -30 -7 -14 -18 -34 -25 -45 -7 -11 -32 -55
-57 -99 -25 -43 -58 -99 -73 -125 -15 -25 -32 -55 -37 -66 -6 -11 -14 -27 -20
-35 -30 -45 -140 -243 -140 -251 0 -5 -4 -9 -9 -9 -5 0 -11 -6 -13 -13 -2 -7
-46 -85 -98 -175 -52 -89 -102 -175 -110 -190 -42 -77 -95 -168 -100 -172 -3
-3 -12 -20 -19 -37 -8 -18 -17 -33 -22 -33 -5 0 -9 -4 -9 -10 0 -5 -13 -31
-29 -58 -16 -27 -44 -76 -62 -108 -17 -33 -35 -61 -38 -64 -4 -3 -12 -16 -19
-30 -20 -41 -83 -152 -111 -195 -14 -22 -26 -42 -26 -45 -1 -4 -51 -90 -105
-180 -8 -13 -42 -73 -103 -180 -10 -19 -62 -108 -113 -197 l-94 -162 0 -433 1
-433 24 40 c13 22 27 45 32 50 4 6 21 35 37 65 16 30 34 62 41 70 7 8 16 25
19 38 4 12 12 22 18 22 6 0 8 3 5 6 -4 4 2 19 12 33 19 27 112 186 164 281 17
30 33 57 36 60 3 3 14 21 23 40 10 19 22 42 28 50 33 51 90 153 90 161 0 5 5
9 10 9 6 0 10 5 10 10 0 14 132 244 142 248 5 2 8 7 8 12 0 4 31 61 68 127 38
65 75 129 83 143 8 14 16 27 19 30 3 3 11 16 18 30 6 14 16 32 22 40 5 8 47
80 92 160 45 80 86 147 90 148 4 2 8 8 8 12 0 5 23 48 50 96 28 48 50 91 50
95 0 5 3 9 8 9 4 0 12 10 18 23 24 49 78 143 96 166 10 13 18 28 18 33 0 6 14
30 30 55 17 24 30 46 30 49 0 3 26 49 57 102 72 122 87 149 107 190 8 17 20
32 26 32 6 0 9 4 6 8 -3 5 2 20 12 33 9 13 24 38 32 54 26 49 112 198 130 225
9 14 38 63 64 110 26 47 55 99 65 115 40 67 205 353 231 400 15 28 41 73 58
100 18 28 37 61 42 75 6 13 14 27 18 30 4 3 21 31 37 62 17 32 32 59 35 59 3
1 505 3 1115 4 611 2 1134 6 1162 9 69 7 134 36 170 76 15 18 28 35 28 38 0 4
4 12 7 18 4 6 10 34 14 62 12 99 -70 209 -171 230 -11 2 -523 5 -1137 6 -747
0 -1118 4 -1119 11 -5 41 -10 649 -13 1690 -2 671 -5 1227 -8 1235 -15 54 -68
115 -118 137 -55 25 -128 26 -175 4z"/>
<path d="M6625 7480 c-11 -4 -38 -13 -60 -20 -41 -12 -146 -60 -155 -71 -3 -3
-21 -14 -40 -25 -19 -10 -39 -23 -45 -27 -5 -4 -49 -36 -97 -70 -177 -128
-388 -334 -608 -596 -25 -29 -53 -63 -63 -75 -11 -11 -33 -38 -50 -59 -18 -22
-40 -49 -51 -60 -10 -12 -46 -58 -79 -102 -34 -44 -64 -82 -67 -85 -3 -3 -17
-21 -30 -40 -14 -19 -28 -39 -33 -45 -41 -48 -190 -270 -260 -386 -84 -141
-177 -324 -184 -363 -2 -11 -8 -25 -14 -33 -6 -7 -9 -13 -5 -13 3 0 1 -12 -5
-27 -6 -16 -13 -37 -15 -48 -2 -11 -7 -33 -11 -50 -3 -16 -6 -68 -6 -115 0
-78 2 -88 30 -130 36 -52 92 -105 128 -122 14 -6 25 -16 25 -21 0 -6 3 -8 6
-4 4 3 18 0 33 -7 46 -24 159 -36 216 -23 11 3 40 11 65 18 25 7 47 13 50 14
36 9 196 104 237 140 6 5 29 24 49 40 80 64 158 138 424 405 262 262 326 329
467 486 347 389 579 752 668 1046 44 147 33 274 -29 341 -33 35 -128 97 -149
97 -7 0 -18 5 -25 12 -7 7 -12 9 -12 5 0 -3 -12 -1 -27 5 -32 13 -248 19 -278
8z"/>
<path d="M7718 6675 c-32 -6 -58 -9 -58 -7 0 2 -7 -2 -17 -9 -9 -8 -17 -12
-17 -10 -5 21 -297 -134 -336 -178 -3 -3 -27 -24 -55 -46 -58 -46 -239 -227
-305 -305 -68 -80 -74 -87 -90 -107 -8 -10 -40 -50 -70 -88 -30 -39 -63 -79
-73 -90 -10 -11 -39 -47 -63 -80 -25 -33 -50 -67 -57 -76 -7 -8 -45 -64 -86
-125 -41 -60 -78 -110 -83 -112 -4 -2 -8 -10 -8 -18 0 -8 -4 -14 -9 -14 -5 0
-12 -8 -15 -18 -4 -10 -14 -27 -24 -38 -9 -11 -21 -28 -27 -37 -5 -9 -66 -98
-135 -199 -68 -101 -152 -223 -185 -273 -33 -49 -68 -99 -77 -109 -10 -11 -18
-24 -18 -28 0 -5 -18 -33 -40 -63 -22 -30 -40 -56 -40 -59 0 -4 -109 -168
-127 -191 -12 -15 -67 -99 -73 -110 -3 -5 -42 -66 -87 -135 -45 -69 -116 -177
-157 -240 -41 -63 -79 -120 -85 -127 -6 -7 -11 -15 -11 -18 0 -7 -52 -88 -61
-95 -3 -3 -14 -18 -23 -35 -9 -16 -24 -42 -34 -57 -9 -14 -51 -79 -92 -143
-41 -64 -79 -125 -85 -135 -5 -11 -13 -20 -17 -20 -5 0 -8 -4 -8 -9 0 -12
-122 -205 -132 -209 -5 -2 -8 -7 -8 -12 0 -4 -52 -90 -116 -191 -64 -101 -124
-197 -133 -212 -9 -16 -37 -61 -62 -100 -59 -93 -140 -221 -160 -255 -9 -15
-83 -135 -166 -267 -82 -132 -169 -274 -193 -315 -25 -41 -47 -77 -50 -80 -4
-3 -10 -12 -14 -20 -4 -8 -12 -24 -19 -35 -77 -127 -194 -351 -189 -362 1 -2
-5 -18 -14 -38 -8 -19 -11 -35 -7 -35 26 0 128 89 413 360 20 19 103 98 185
175 81 77 171 163 200 190 29 28 108 102 176 165 67 63 139 131 159 150 42 41
286 271 345 325 33 31 185 175 425 405 487 465 1071 1049 1406 1406 73 77 241
259 265 286 72 80 167 185 189 208 14 14 52 57 85 96 33 38 70 80 82 94 55 61
79 91 146 180 39 52 75 97 79 98 5 2 8 8 8 13 0 6 17 33 38 62 21 29 65 97 97
152 33 55 62 102 65 105 16 16 141 288 175 380 17 49 18 53 39 155 23 116 24
227 2 263 -4 7 -5 12 -1 12 3 0 -1 13 -9 29 -9 16 -12 31 -9 35 4 3 1 6 -5 6
-6 0 -14 9 -17 20 -19 60 -162 148 -270 167 -55 10 -207 9 -257 -2z"/>
<path d="M8695 6242 c-1 -2 -15 -5 -30 -8 -57 -10 -114 -51 -151 -108 -28 -44
-34 -108 -15 -159 6 -15 8 -27 5 -27 -3 0 1 -6 8 -14 7 -8 24 -28 38 -45 14
-17 30 -31 35 -31 6 0 16 -5 23 -12 6 -6 17 -13 24 -14 7 -1 31 -6 53 -11 29
-6 4057 -10 4108 -4 4 1 6 99 5 218 l-3 217 -2048 1 c-1127 0 -2050 -1 -2052
-3z"/>
<path d="M2257 3234 c-1 -1 -30 -5 -64 -8 -33 -3 -73 -10 -88 -16 -15 -6 -30
-9 -32 -6 -3 2 -36 -9 -74 -24 -38 -16 -69 -27 -69 -25 0 2 -27 -12 -61 -31
-33 -18 -63 -34 -66 -34 -3 0 -18 -10 -33 -22 -15 -13 -40 -32 -56 -43 -52
-37 -161 -152 -199 -210 -27 -42 -105 -187 -105 -196 0 -4 -5 -20 -12 -36 -11
-28 -15 -39 -22 -70 -3 -10 -5 -18 -6 -18 -1 0 -3 -9 -5 -20 -2 -11 -7 -36
-10 -55 -6 -30 -16 -135 -17 -165 0 -23 12 -152 16 -170 13 -60 28 -122 34
-135 3 -8 6 -17 7 -20 9 -27 20 -51 37 -82 10 -21 17 -38 14 -38 -4 0 63 -106
101 -160 28 -38 134 -142 178 -175 22 -16 42 -32 45 -35 19 -22 248 -126 300
-136 14 -2 36 -7 50 -10 14 -3 39 -8 55 -11 45 -8 244 -8 295 1 25 4 54 9 65
10 27 4 142 43 180 61 17 7 37 16 45 19 8 4 29 15 45 26 17 11 39 24 50 29 56
26 184 148 252 238 82 111 163 290 178 393 2 14 7 41 10 60 11 55 6 293 -5
308 -2 1 -4 11 -5 22 -1 11 -4 21 -5 23 -1 1 -4 11 -6 22 -4 29 -47 142 -75
200 -59 121 -186 271 -299 352 -125 90 -305 164 -435 178 -16 1 -30 4 -30 5 0
2 -176 6 -178 4z"/>
</g>
</svg>
